<svg height="512" viewBox="0 0 512 512" width="512" xmlns="http://www.w3.org/2000/svg" xmlns:xlink="http://www.w3.org/1999/xlink"><linearGradient id="linear-gradient" gradientUnits="userSpaceOnUse" x1="29.34" x2="490.997" y1="262.769" y2="262.769"><stop offset="0" stop-color="#e6332a"/><stop offset=".2277" stop-color="#db2e27"/><stop offset=".6324" stop-color="#bc2220"/><stop offset="1" stop-color="#9b1418"/></linearGradient><radialGradient id="radial-gradient" cx="269.642" cy="332.769" gradientTransform="matrix(.765 -.644 .489 .58 -99.193 313.343)" gradientUnits="userSpaceOnUse" r="270.534"><stop offset="0"/><stop offset="1" stop-color="#fff" stop-opacity="0"/></radialGradient><radialGradient id="radial-gradient-2" cx="215.775" cy="157.309" fx="266.549" fy="305.485" gradientUnits="userSpaceOnUse" r="219.386"><stop offset="0" stop-color="#fff"/><stop offset=".0736" stop-color="#fff" stop-opacity=".824"/><stop offset=".1652" stop-color="#fff" stop-opacity=".633"/><stop offset=".262" stop-color="#fff" stop-opacity=".463"/><stop offset=".362" stop-color="#fff" stop-opacity=".32"/><stop offset=".4663" stop-color="#fff" stop-opacity=".203"/><stop offset=".5761" stop-color="#fff" stop-opacity=".113"/><stop offset=".6941" stop-color="#fff" stop-opacity=".05"/><stop offset=".8259" stop-color="#fff" stop-opacity=".012"/><stop offset="1" stop-color="#fff" stop-opacity="0"/></radialGradient><g isolation="isolate"><g id="Layer_1" data-name="Layer 1"><circle cx="260.169" cy="262.769" fill="url(#linear-gradient)" r="230.829"/><path d="m264.6538 97.6761c72.98 0 129.6756 49.4263 129.9338 115.7006 0 68.939-45.8387 124.4686-109.1685 124.4686-21.3684 0-41.3584-10.487-48.2515-22.9511 0 0-10.5118 38.1655-13.0967 47.6212-6.9792 25.7876-32.1388 61.6327-34.2067 64.2972-7.755 10.1431-9.9952-56.2173-5.5146-74.1824 3.8774-15.6445 24.7287-99.6264 24.7287-99.6264s-6.29-11.9481-6.29-29.6558c0-57.3345 64.6222-63.7815 64.6222-20.4583 0 17.192-11.632 42.8075-17.4911 66.6181-4.8251 20.0286 10.5119 36.1887 31.1911 36.1887 80.1317 0 103.568-173.0351-21.7993-173.0351-86.5941 0-116.8373 89.2253-79.27 132.5487a5.91 5.91 0 0 1 1.3784 5.7591c-6.3758 24.5842-5.428 28.71-12.9242 25.3578-72.98-32.1484-59.7111-198.6509 96.1581-198.6509z" fill="#fff" fill-rule="evenodd"/><path d="m472.4294 171.94a230.513 230.513 0 0 1 2.6011 34.5219c0 129.4458-107.6157 234.3828-240.3662 234.3828-75.187 0-142.3008-33.67-186.3769-86.3813 35.4755 81.86 116.9838 139.1333 211.8813 139.1333 127.4829 0 230.8286-103.3452 230.8286-230.8286a230.064 230.064 0 0 0 -18.5679-90.8281z" fill="url(#radial-gradient)" mix-blend-mode="multiply"/><path d="m44.263 227.504c21.96 56.25 116.2212 71.9993 210.5376 35.1773s158.5388-114.7754 131.0114-168.5213c-16.263-31.7537-69.4149-60.3147-132.1229-62.1182h-.3424c-100.9337 2.9299-185.6031 70.6639-213.8983 163.0382a77.3986 77.3986 0 0 0 4.8146 32.424z" fill="url(#radial-gradient-2)"/></g></g></svg>